<?xml version="1.0" standalone="no"?>
<!DOCTYPE svg PUBLIC "-//W3C//DTD SVG 20010904//EN"
 "http://www.w3.org/TR/2001/REC-SVG-20010904/DTD/svg10.dtd">
<svg version="1.0" xmlns="http://www.w3.org/2000/svg"
 width="737.000000pt" height="737.000000pt" viewBox="0 0 737.000000 737.000000"
 preserveAspectRatio="xMidYMid meet">
<metadata>
Created by potrace 1.11, written by Peter Selinger 2001-2013
</metadata>
<g transform="translate(0.000000,737.000000) scale(0.100000,-0.100000)"
fill="#000000" stroke="none">
<path d="M4321 7256 c-12 -14 -5 -26 16 -26 15 0 18 26 4 34 -5 3 -14 0 -20
-8z"/>
<path d="M4084 7175 c-8 -34 15 -60 45 -50 25 8 31 65 7 65 -8 0 -21 3 -30 6
-11 4 -17 -2 -22 -21z"/>
<path d="M3883 7060 c-51 -21 -53 -89 -3 -110 33 -14 65 -6 75 18 16 39 13 62
-12 82 -29 22 -29 22 -60 10z"/>
<path d="M3649 6867 c-44 -34 -46 -88 -4 -124 59 -52 132 -6 126 79 -3 45 -83
75 -122 45z"/>
<path d="M3384 6645 c-38 -36 -42 -101 -8 -138 64 -70 174 -29 174 65 0 86
-103 131 -166 73z"/>
<path d="M3183 6420 c-40 -24 -56 -53 -56 -105 0 -98 98 -152 188 -103 39 21
59 58 58 107 -2 97 -106 152 -190 101z"/>
<path d="M3008 6113 c-58 -9 -115 -94 -108 -163 9 -102 133 -165 221 -114 101
59 104 201 5 259 -41 24 -59 27 -118 18z"/>
<path d="M2855 5688 c-56 -12 -105 -58 -125 -119 -18 -52 -17 -60 16 -149 3
-8 23 -28 46 -44 71 -51 157 -46 221 13 43 39 55 70 54 132 -2 72 -40 130
-100 154 -55 22 -65 23 -112 13z"/>
<path d="M3856 5593 c-2 -3 -15 -6 -28 -8 -83 -10 -199 -75 -276 -154 -215
-220 -185 -599 63 -786 47 -35 138 -82 178 -91 9 -2 27 -7 40 -10 52 -13 193
-5 260 16 180 56 331 220 362 395 50 275 -100 535 -355 616 -59 19 -232 34
-244 22z"/>
<path d="M2777 5162 c-67 -28 -117 -97 -121 -169 -6 -83 29 -147 103 -191 98
-58 227 -15 277 91 76 165 -92 340 -259 269z"/>
<path d="M5875 5073 c-74 -15 -318 -77 -355 -90 -25 -8 -52 -16 -60 -18 -28
-6 -251 -83 -305 -105 -124 -52 -169 -72 -290 -131 -223 -109 -449 -252 -600
-381 -11 -9 -31 -26 -45 -38 -145 -124 -321 -331 -414 -486 -139 -231 -215
-492 -215 -739 -1 -134 4 -176 45 -373 7 -36 53 -175 64 -194 6 -10 10 -22 10
-28 0 -20 94 -208 153 -305 77 -128 188 -279 272 -370 145 -157 268 -272 417
-387 57 -43 110 -85 119 -92 9 -8 20 -15 25 -17 11 -5 127 -82 134 -89 9 -10
159 -96 265 -153 22 -12 43 -26 46 -30 3 -5 8 -8 10 -7 2 1 53 -21 112 -49 60
-28 110 -51 112 -51 1 0 27 -11 56 -24 30 -13 57 -24 62 -25 4 0 20 -7 35 -15
23 -11 247 -93 277 -100 6 -2 17 -6 25 -9 33 -12 241 -69 300 -82 8 -2 47 -11
85 -20 39 -9 80 -19 93 -21 12 -2 34 -6 50 -9 15 -3 47 -8 72 -11 25 -3 51 -7
58 -10 7 -2 10 1 7 6 -3 6 -11 10 -17 10 -5 0 -24 6 -41 14 -18 8 -71 33 -120
55 -48 22 -91 41 -95 42 -22 5 -440 220 -552 284 -73 41 -135 75 -137 75 -2 0
-16 8 -31 19 -15 10 -101 67 -192 126 -299 196 -474 338 -705 570 -66 67 -136
141 -155 164 -19 24 -47 57 -61 74 -29 37 -87 114 -109 147 -8 12 -21 28 -27
36 -7 7 -13 15 -13 18 0 3 -17 31 -37 63 -84 132 -197 393 -218 505 -3 13 -7
34 -10 48 -26 121 -30 315 -9 415 10 50 12 60 14 60 1 0 3 10 6 23 14 77 86
246 154 362 132 226 433 540 680 710 19 13 37 27 40 30 21 24 302 203 485 308
158 90 455 243 455 234 0 -4 4 -2 8 4 4 6 28 21 55 33 26 12 47 24 47 26 0 5
-4 5 -35 -2z"/>
<path d="M2834 4549 c-48 -14 -120 -83 -140 -134 -25 -67 -15 -150 25 -209 82
-119 240 -134 344 -33 140 137 49 373 -148 383 -27 1 -64 -2 -81 -7z"/>
<path d="M2971 3837 c-198 -93 -195 -372 5 -460 56 -25 139 -25 197 1 49 22
117 82 117 105 0 7 5 18 12 25 15 15 21 45 21 109 -1 174 -194 295 -352 220z"/>
<path d="M3101 3067 c-102 -26 -170 -121 -165 -229 8 -193 251 -285 384 -146
45 47 61 82 65 144 6 105 -60 201 -159 229 -55 16 -73 16 -125 2z"/>
<path d="M3013 2404 c-91 -23 -145 -90 -149 -183 -5 -111 73 -198 183 -206
189 -14 289 206 155 341 -52 52 -114 68 -189 48z"/>
<path d="M2764 1847 c-59 -19 -108 -87 -113 -158 -4 -56 34 -125 83 -154 42
-25 122 -39 132 -23 3 4 13 8 23 8 25 0 87 58 101 94 55 146 -76 281 -226 233z"/>
<path d="M2487 1416 c-67 -20 -123 -95 -112 -151 2 -11 4 -29 4 -39 1 -31 81
-101 119 -104 51 -4 105 15 134 45 104 110 -1 290 -145 249z"/>
<path d="M2133 1059 c-68 -33 -90 -103 -54 -169 49 -92 176 -86 222 10 26 53
2 128 -49 153 -50 26 -76 27 -119 6z"/>
<path d="M1834 801 c-57 -35 -64 -106 -16 -153 43 -42 97 -41 140 3 25 26 30
38 28 71 -6 77 -88 120 -152 79z"/>
<path d="M1592 589 c-12 -5 -22 -6 -22 -2 0 3 -9 -6 -20 -20 -34 -43 -25 -99
20 -122 36 -19 70 -12 98 20 27 32 28 64 2 97 -23 30 -47 38 -78 27z"/>
<path d="M1296 378 c-9 -12 -16 -29 -16 -38 0 -48 63 -77 103 -47 23 17 28 61
11 86 -21 29 -77 29 -98 -1z"/>
<path d="M1082 228 c-16 -16 -15 -43 1 -56 19 -16 54 -3 59 22 7 37 -34 60
-60 34z"/>
<path d="M854 129 c-8 -14 18 -31 30 -19 9 9 0 30 -14 30 -5 0 -12 -5 -16 -11z"/>
</g>
</svg>
